<svg width="37" height="43" viewBox="0 0 37 43" fill="none" xmlns="http://www.w3.org/2000/svg">
<path d="M3.33567 15C3.25567 15 3.18767 14.972 3.13167 14.916C3.07567 14.86 3.04767 14.792 3.04767 14.712V8.076H0.827672C0.747672 8.076 0.679672 8.048 0.623672 7.992C0.567672 7.936 0.539672 7.868 0.539672 7.788V6.9C0.539672 6.812 0.563672 6.74 0.611672 6.684C0.667672 6.628 0.739672 6.6 0.827672 6.6H6.94767C7.03567 6.6 7.10767 6.628 7.16367 6.684C7.21967 6.74 7.24767 6.812 7.24767 6.9V7.788C7.24767 7.868 7.21967 7.936 7.16367 7.992C7.10767 8.048 7.03567 8.076 6.94767 8.076H4.73967V14.712C4.73967 14.792 4.71167 14.86 4.65567 14.916C4.59967 14.972 4.52767 15 4.43967 15H3.33567ZM8.7533 15C8.6733 15 8.6053 14.972 8.5493 14.916C8.4933 14.86 8.4653 14.792 8.4653 14.712V6.9C8.4653 6.812 8.4893 6.74 8.5373 6.684C8.5933 6.628 8.6653 6.6 8.7533 6.6H9.8453C9.9333 6.6 10.0013 6.628 10.0493 6.684C10.1053 6.74 10.1333 6.812 10.1333 6.9V9.996H13.6733V6.9C13.6733 6.812 13.6973 6.74 13.7453 6.684C13.8013 6.628 13.8733 6.6 13.9613 6.6H15.0413C15.1293 6.6 15.2013 6.628 15.2573 6.684C15.3133 6.74 15.3413 6.812 15.3413 6.9V14.712C15.3413 14.8 15.3133 14.872 15.2573 14.928C15.2013 14.976 15.1293 15 15.0413 15H13.9613C13.8813 15 13.8133 14.972 13.7573 14.916C13.7013 14.86 13.6733 14.792 13.6733 14.712V11.496H10.1333V14.712C10.1333 14.792 10.1053 14.86 10.0493 14.916C10.0013 14.972 9.9333 15 9.8453 15H8.7533ZM17.4955 15C17.4155 15 17.3475 14.972 17.2915 14.916C17.2355 14.86 17.2075 14.792 17.2075 14.712V6.9C17.2075 6.812 17.2315 6.74 17.2795 6.684C17.3355 6.628 17.4075 6.6 17.4955 6.6H22.7755C22.8635 6.6 22.9355 6.628 22.9915 6.684C23.0475 6.74 23.0755 6.812 23.0755 6.9V7.692C23.0755 7.78 23.0475 7.852 22.9915 7.908C22.9355 7.956 22.8635 7.98 22.7755 7.98H18.8275V10.104H22.5115C22.5995 10.104 22.6715 10.132 22.7275 10.188C22.7835 10.236 22.8115 10.304 22.8115 10.392V11.136C22.8115 11.224 22.7835 11.296 22.7275 11.352C22.6715 11.4 22.5995 11.424 22.5115 11.424H18.8275V13.62H22.8715C22.9595 13.62 23.0315 13.648 23.0875 13.704C23.1435 13.76 23.1715 13.832 23.1715 13.92V14.712C23.1715 14.8 23.1435 14.872 23.0875 14.928C23.0315 14.976 22.9595 15 22.8715 15H17.4955Z" fill="black"/>
<path d="M1.26139 26.2619C1.17339 26.2619 1.10139 26.2379 1.04539 26.1899C0.989391 26.1339 0.961391 26.0619 0.961391 25.9739V18.1619C0.961391 18.0739 0.989391 18.0019 1.04539 17.9459C1.10139 17.8899 1.17339 17.8619 1.26139 17.8619H2.20939C2.37739 17.8619 2.49739 17.9379 2.56939 18.0899L4.88539 22.4099L7.22539 18.0899C7.30539 17.9379 7.42539 17.8619 7.58539 17.8619H8.52139C8.60939 17.8619 8.68139 17.8899 8.73739 17.9459C8.79339 18.0019 8.82139 18.0739 8.82139 18.1619V25.9739C8.82139 26.0619 8.79339 26.1339 8.73739 26.1899C8.68139 26.2379 8.60939 26.2619 8.52139 26.2619H7.51339C7.43339 26.2619 7.36539 26.2339 7.30939 26.1779C7.25339 26.1219 7.22539 26.0539 7.22539 25.9739V20.7779L5.54539 23.9819C5.44139 24.1579 5.30539 24.2459 5.13739 24.2459H4.64539C4.47739 24.2459 4.34139 24.1579 4.23739 23.9819L2.55739 20.7779V25.9739C2.55739 26.0539 2.52939 26.1219 2.47339 26.1779C2.42539 26.2339 2.35739 26.2619 2.26939 26.2619H1.26139ZM13.916 26.3819C12.828 26.3819 11.98 26.1059 11.372 25.5539C10.764 25.0019 10.444 24.1819 10.412 23.0939C10.404 22.8619 10.4 22.5219 10.4 22.0739C10.4 21.6179 10.404 21.2739 10.412 21.0419C10.444 19.9779 10.772 19.1619 11.396 18.5939C12.02 18.0259 12.86 17.7419 13.916 17.7419C14.972 17.7419 15.812 18.0259 16.436 18.5939C17.068 19.1619 17.4 19.9779 17.432 21.0419C17.448 21.5059 17.456 21.8499 17.456 22.0739C17.456 22.2899 17.448 22.6299 17.432 23.0939C17.392 24.1819 17.068 25.0019 16.46 25.5539C15.852 26.1059 15.004 26.3819 13.916 26.3819ZM13.916 25.0019C14.452 25.0019 14.88 24.8419 15.2 24.5219C15.52 24.1939 15.692 23.6979 15.716 23.0339C15.732 22.5539 15.74 22.2299 15.74 22.0619C15.74 21.8779 15.732 21.5539 15.716 21.0899C15.692 20.4259 15.52 19.9339 15.2 19.6139C14.88 19.2859 14.452 19.1219 13.916 19.1219C13.388 19.1219 12.964 19.2859 12.644 19.6139C12.324 19.9339 12.152 20.4259 12.128 21.0899C12.12 21.3219 12.116 21.6459 12.116 22.0619C12.116 22.4699 12.12 22.7939 12.128 23.0339C12.152 23.6979 12.32 24.1939 12.632 24.5219C12.952 24.8419 13.38 25.0019 13.916 25.0019ZM21.2219 26.2619C20.9899 26.2619 20.8379 26.1499 20.7659 25.9259L18.1979 18.2219L18.1739 18.1139C18.1739 18.0419 18.1979 17.9819 18.2459 17.9339C18.2939 17.8859 18.3539 17.8619 18.4259 17.8619H19.4819C19.5859 17.8619 19.6659 17.8899 19.7219 17.9459C19.7859 17.9939 19.8299 18.0539 19.8539 18.1259L21.8819 24.3059L23.9099 18.1259C23.9259 18.0619 23.9659 18.0019 24.0299 17.9459C24.0939 17.8899 24.1779 17.8619 24.2819 17.8619H25.3379C25.4019 17.8619 25.4579 17.8859 25.5059 17.9339C25.5619 17.9819 25.5899 18.0419 25.5899 18.1139L25.5659 18.2219L22.9979 25.9259C22.9259 26.1499 22.7739 26.2619 22.5419 26.2619H21.2219ZM27.1478 26.2619C27.0678 26.2619 26.9998 26.2339 26.9438 26.1779C26.8878 26.1219 26.8598 26.0539 26.8598 25.9739V18.1499C26.8598 18.0619 26.8878 17.9939 26.9438 17.9459C26.9998 17.8899 27.0678 17.8619 27.1478 17.8619H28.2758C28.3638 17.8619 28.4318 17.8899 28.4798 17.9459C28.5358 17.9939 28.5638 18.0619 28.5638 18.1499V25.9739C28.5638 26.0539 28.5358 26.1219 28.4798 26.1779C28.4318 26.2339 28.3638 26.2619 28.2758 26.2619H27.1478ZM30.7338 26.2619C30.6538 26.2619 30.5858 26.2339 30.5298 26.1779C30.4738 26.1219 30.4458 26.0539 30.4458 25.9739V18.1619C30.4458 18.0739 30.4698 18.0019 30.5178 17.9459C30.5738 17.8899 30.6458 17.8619 30.7338 17.8619H36.0138C36.1018 17.8619 36.1738 17.8899 36.2298 17.9459C36.2858 18.0019 36.3138 18.0739 36.3138 18.1619V18.9539C36.3138 19.0419 36.2858 19.1139 36.2298 19.1699C36.1738 19.2179 36.1018 19.2419 36.0138 19.2419H32.0658V21.3659H35.7498C35.8378 21.3659 35.9098 21.3939 35.9658 21.4499C36.0218 21.4979 36.0498 21.5659 36.0498 21.6539V22.3979C36.0498 22.4859 36.0218 22.5579 35.9658 22.6139C35.9098 22.6619 35.8378 22.6859 35.7498 22.6859H32.0658V24.8819H36.1098C36.1978 24.8819 36.2698 24.9099 36.3258 24.9659C36.3818 25.0219 36.4098 25.0939 36.4098 25.1819V25.9739C36.4098 26.0619 36.3818 26.1339 36.3258 26.1899C36.2698 26.2379 36.1978 26.2619 36.1098 26.2619H30.7338Z" fill="black"/>
<path d="M21.392 36.5C21.312 36.5 21.244 36.472 21.188 36.416C21.132 36.36 21.104 36.292 21.104 36.212V28.4C21.104 28.312 21.128 28.24 21.176 28.184C21.232 28.128 21.304 28.1 21.392 28.1H24.32C26.672 28.1 27.872 29.188 27.92 31.364C27.936 31.828 27.944 32.14 27.944 32.3C27.944 32.452 27.936 32.76 27.92 33.224C27.888 34.344 27.588 35.172 27.02 35.708C26.452 36.236 25.572 36.5 24.38 36.5H21.392ZM24.32 35.12C24.992 35.12 25.476 34.972 25.772 34.676C26.068 34.372 26.224 33.876 26.24 33.188C26.256 32.708 26.264 32.408 26.264 32.288C26.264 32.16 26.256 31.864 26.24 31.4C26.224 30.744 26.056 30.26 25.736 29.948C25.424 29.636 24.932 29.48 24.26 29.48H22.772V35.12H24.32ZM29.8295 36.5C29.7495 36.5 29.6815 36.472 29.6255 36.416C29.5695 36.36 29.5415 36.292 29.5415 36.212V28.4C29.5415 28.312 29.5655 28.24 29.6135 28.184C29.6695 28.128 29.7415 28.1 29.8295 28.1H33.3095C34.2455 28.1 34.9415 28.308 35.3975 28.724C35.8615 29.132 36.0935 29.692 36.0935 30.404C36.0935 30.82 35.9895 31.176 35.7815 31.472C35.5815 31.76 35.3455 31.968 35.0735 32.096C35.4095 32.248 35.6895 32.496 35.9135 32.84C36.1455 33.184 36.2615 33.576 36.2615 34.016C36.2615 34.76 36.0095 35.36 35.5055 35.816C35.0095 36.272 34.3095 36.5 33.4055 36.5H29.8295ZM33.0935 31.544C33.5095 31.544 33.8255 31.444 34.0415 31.244C34.2575 31.044 34.3655 30.776 34.3655 30.44C34.3655 30.096 34.2575 29.832 34.0415 29.648C33.8255 29.456 33.5095 29.36 33.0935 29.36H31.2095V31.544H33.0935ZM33.2135 35.228C33.6295 35.228 33.9535 35.116 34.1855 34.892C34.4175 34.66 34.5335 34.368 34.5335 34.016C34.5335 33.656 34.4175 33.364 34.1855 33.14C33.9535 32.908 33.6295 32.792 33.2135 32.792H31.2095V35.228H33.2135Z" fill="black"/>
<rect x="24" y="6.14285" width="12" height="9.21429" rx="4.60714" fill="#FF7314"/>
<rect x="1" y="28.6667" width="19" height="8.19048" rx="4.09524" fill="#FF7314"/>
</svg>
